<svg xmlns="http://www.w3.org/2000/svg" xmlns:xlink="http://www.w3.org/1999/xlink" id="processonSvg1000" viewBox="122.5 32.5 897.5 868.3333333333337" width="897.5" height="868.3333333333337"><defs id="ProcessOnDefs1001"><pattern id="ProcessOnPattern1007" patternUnits="userSpaceOnUse" width="240.0" height="240.0" patternTransform="matrix(0.5208333333333334,0.0,0.0,0.85,0.0,0.0)"><svg version="1.1" id="svg2" xmlns:svg="http://www.w3.org/2000/svg" xmlns:dc="http://purl.org/dc/elements/1.1/" xmlns:cc="http://creativecommons.org/ns#" xmlns:rdf="http://www.w3.org/1999/02/22-rdf-syntax-ns#" xmlns="http://www.w3.org/2000/svg" xmlns:xlink="http://www.w3.org/1999/xlink" x="0px" y="0px" width="240px" height="240px" viewBox="0 0 240 240" enable-background="new 0 0 240 240" xml:space="preserve"> <path fill="none" stroke="#000000" stroke-width="2" stroke-miterlimit="10" stroke-dasharray="20,8,2,8" d="M239,219.96 c0,10.518-8.524,19.04-19.04,19.04H20.04C9.524,239,1,230.478,1,219.96V20.04C1,9.524,9.524,1,20.04,1h199.92 C230.476,1,239,9.524,239,20.04V219.96z"/> </svg> </pattern><pattern id="ProcessOnPattern1010" patternUnits="userSpaceOnUse" width="240.0" height="240.0" patternTransform="matrix(0.5730624142661213,0.0,0.0,0.9531035665294941,0.0,0.0)"><svg version="1.1" id="svg2" xmlns:svg="http://www.w3.org/2000/svg" xmlns:dc="http://purl.org/dc/elements/1.1/" xmlns:cc="http://creativecommons.org/ns#" xmlns:rdf="http://www.w3.org/1999/02/22-rdf-syntax-ns#" xmlns="http://www.w3.org/2000/svg" xmlns:xlink="http://www.w3.org/1999/xlink" x="0px" y="0px" width="240px" height="240px" viewBox="0 0 240 240" enable-background="new 0 0 240 240" xml:space="preserve"> <path fill="none" stroke="#000000" stroke-width="2" stroke-miterlimit="10" stroke-dasharray="20,8,2,8" d="M239,219.96 c0,10.518-8.524,19.04-19.04,19.04H20.04C9.524,239,1,230.478,1,219.96V20.04C1,9.524,9.524,1,20.04,1h199.92 C230.476,1,239,9.524,239,20.04V219.96z"/> </svg> </pattern><pattern id="ProcessOnPattern1013" patternUnits="userSpaceOnUse" width="129.41975308641966" height="94.99999999999977"><image id="ProcessOnImage1014" xlink:href="http://img3.imgtn.bdimg.com/it/u=3029472588,3267773869&amp;fm=26&amp;gp=0.jpg" width="129.41975308641966" height="129.41975308641966" transform="matrix(1.0,0.0,0.0,1.0,0.0,-17.209876543209944)"/></pattern><pattern id="ProcessOnPattern1017" patternUnits="userSpaceOnUse" width="62.0" height="75.0" patternTransform="matrix(1.0,0.0,0.0,1.0,0.0,0.0)"><svg version="1.1" id="svg1" xmlns="http://www.w3.org/2000/svg" xmlns:xlink="http://www.w3.org/1999/xlink" x="0px" y="0px" width="62px" height="75px" viewBox="0 0 62 75" enable-background="new 0 0 62 75" xml:space="preserve"> <g id="g12"> <polygon fill="#FAD791" points="62,42.23 46.913,41.596 37.181,42.23 53.276,64.077 "/> <polygon fill="#624A1E" points="62,33.13 46.913,33.77 37.181,33.13 53.276,11.195 "/> <polygon fill="#624A1E" points="0,33.041 15.092,33.77 24.819,33.13 8.728,11.288 "/> <polygon fill="#FAD791" points="0,42.23 15.092,41.596 24.819,42.23 8.728,64.077 "/> <polygon fill="#D9A741" points="53.276,32.221 62,33.13 62,15.564 53.276,11.195 "/> <polygon fill="#876929" points="37.181,15.564 53.276,11.195 53.276,32.221 37.181,33.13 "/> <polygon fill="#D9A741" points="31.001,13.018 48.454,18.75 48.454,27.396 31.001,24.301 "/> <polygon fill="#624A1E" points="23.183,25.76 31.092,24.301 48.454,27.396 40.727,28.217 "/> <polygon fill="#876929" points="8.728,32.221 0,33.041 0,15.473 8.728,11.195 "/> <polygon fill="#D9A741" points="24.819,15.564 8.728,11.195 8.728,32.221 24.819,33.13 "/> <polygon fill="#876929" points="31.001,13.018 13.544,18.75 13.544,27.396 31.001,24.301 "/> <polygon fill="#624A1E" points="38.818,25.76 30.909,24.301 13.544,27.396 21.274,28.217 "/> <polygon fill="#D9A741" points="53.276,43.051 62,42.23 62,59.711 53.276,64.077 "/> <polygon fill="#876929" points="37.181,59.803 53.276,64.077 53.276,43.051 37.181,42.23 "/> <polygon fill="#D9A741" points="31.001,62.258 48.454,56.614 48.454,47.874 31.001,50.97 "/> <polygon fill="#FAD791" points="23.183,49.607 31.092,50.97 48.454,47.874 40.727,47.059 "/> <polygon fill="#876929" points="8.728,43.051 0,42.23 0,59.711 8.728,64.077 "/> <polygon fill="#D9A741" points="24.819,59.803 8.728,64.077 8.728,43.051 24.819,42.23 "/> <polygon fill="#876929" points="31.001,62.258 13.544,56.614 13.544,47.874 31.001,50.97 "/> <polygon fill="#FAD791" points="38.818,49.607 30.909,50.97 13.544,47.874 21.274,47.059 "/> <polygon fill="#876929" points="21.728,70.354 31.001,75 36.182,72.359 40.272,4.641 31.001,0 21.728,4.641 "/> <polygon fill="#D9A741" points="40.272,70.354 31.001,75 31.001,0 40.272,4.641 "/> </g> </svg> </pattern><pattern id="ProcessOnPattern1022" patternUnits="userSpaceOnUse" width="77.0" height="50.0" patternTransform="matrix(1.0,0.0,0.0,1.0,0.0,0.0)"><svg version="1.1" id="图层_1" xmlns="http://www.w3.org/2000/svg" xmlns:xlink="http://www.w3.org/1999/xlink" x="0px" y="0px" width="77px" height="50px" viewBox="0 0 77 50" enable-background="new 0 0 77 50" xml:space="preserve"> <g id="Layer_1"> <g> <rect fill="#876929" width="77" height="50"/> </g> <g> <path fill="#D9A741" d="M0,0h77v46.6H0V0z"/> </g> <rect x="21.328" y="6.219" fill="#FFFFFF" width="8.207" height="35.212"/> <rect x="34.336" y="6.219" fill="#FFFFFF" width="8.208" height="35.212"/> <rect x="47.351" y="6.219" fill="#FFFFFF" width="8.202" height="35.212"/> <polygon fill="#FFFFFF" points="9.49,16.196 9.49,31.459 16.527,23.827 "/> <polygon fill="#FFFFFF" points="60.36,16.196 60.36,31.459 67.387,23.827 "/> </g> </svg> </pattern><pattern id="ProcessOnPattern1027" patternUnits="userSpaceOnUse" width="75.0" height="75.0" patternTransform="matrix(1.0,0.0,0.0,1.0,0.0,0.0)"><svg version="1.1" id="图层_1" xmlns="http://www.w3.org/2000/svg" xmlns:xlink="http://www.w3.org/1999/xlink" x="0px" y="0px" width="75px" height="75px" viewBox="0 0 75 75" enable-background="new 0 0 75 75" xml:space="preserve"> <g id="Layer_1"> <path fill="#9D5025" d="M69.371,75H36.883c-2.294,0-4.062-1.759-4.062-4.053V38.449c0-2.303,1.768-4.063,4.062-4.063h32.488 c2.313,0,4.072,1.759,4.072,4.063v32.498C73.443,73.241,71.547,75,69.371,75z"/> <path fill="#9D5025" d="M38.099,3.252H5.61c-2.294,0-4.053,1.759-4.053,4.063v32.479c0,2.313,1.759,4.071,4.053,4.071h7.452V22.882 c0-4.468,3.657-8.125,8.125-8.125H42.17V7.314C42.17,5.14,40.273,3.252,38.099,3.252z"/> <path fill="#9D5025" d="M53.676,18.819H21.187c-2.303,0-4.063,1.759-4.063,4.063V55.37c0,2.294,1.759,4.054,4.063,4.054h7.581 V38.449c0-4.468,3.647-8.125,8.115-8.125h20.845v-7.443C57.729,20.717,55.969,18.819,53.676,18.819z"/> <path fill="#F58536" d="M69.371,71.757H36.883c-2.294,0-4.062-1.759-4.062-4.071V35.197c0-2.302,1.768-4.062,4.062-4.062h32.488 c2.313,0,4.072,1.76,4.072,4.062v32.489C73.443,69.86,71.547,71.757,69.371,71.757z"/> <path fill="#F58536" d="M38.099,0H5.61C3.316,0,1.557,1.76,1.557,4.062v32.489c0,2.294,1.759,4.053,4.053,4.053h7.452V19.629 c0-4.467,3.657-8.125,8.125-8.125H42.17V4.062C42.17,1.76,40.273,0,38.099,0z"/> <path fill="#F58536" d="M53.676,15.567H21.187c-2.303,0-4.063,1.76-4.063,4.062v32.499c0,2.294,1.759,4.053,4.063,4.053h7.581 V35.059c0-4.468,3.647-8.115,8.115-8.115h20.845v-7.452C57.729,17.327,55.969,15.567,53.676,15.567z"/> </g> </svg> </pattern><pattern id="ProcessOnPattern1032" patternUnits="userSpaceOnUse" width="75.0" height="75.0" patternTransform="matrix(1.0,0.0,0.0,1.0,0.0,0.0)"><svg version="1.1" id="图层_1" xmlns="http://www.w3.org/2000/svg" xmlns:xlink="http://www.w3.org/1999/xlink" x="0px" y="0px" width="75px" height="75px" viewBox="0 0 75 75" enable-background="new 0 0 75 75" xml:space="preserve"> <g id="Layer_1"> <path fill="#19486F" d="M61.057,75H13.944C7.175,75,1.625,69.448,1.625,62.68V15.704c0-6.769,5.55-12.32,12.319-12.32h47.112 c6.769,0,12.318,5.551,12.318,12.32v47.112C73.375,69.585,67.825,75,61.057,75z"/> <path fill="#2E73B8" d="M61.057,71.75H13.944c-6.769,0-12.319-5.55-12.319-12.318V12.319C1.625,5.551,7.175,0,13.944,0h47.112 c6.769,0,12.318,5.551,12.318,12.319v47.112C73.375,66.2,67.825,71.75,61.057,71.75z"/> <g> <path fill="#FFFFFF" d="M5.009,11.237h3.384c2.031,0,2.979,1.218,2.979,3.113c0,1.896-1.083,3.114-3.114,3.114H6.769v4.332h-1.76 V11.237z M6.769,16.11h1.219c0.947,0,1.76-0.542,1.76-1.896c0-1.083-0.406-1.896-1.76-1.896H6.904v3.791H6.769z"/> <path fill="#FFFFFF" d="M15.163,13.673c2.302,0,2.979,1.76,2.979,4.197s-0.813,4.197-2.979,4.197s-2.979-1.76-2.979-4.197 C12.184,15.298,12.726,13.673,15.163,13.673z M15.163,20.849c1.218,0,1.354-0.948,1.354-2.979c0-1.76-0.271-2.979-1.354-2.979 c-1.218,0-1.354,1.219-1.354,2.979C13.673,19.901,13.944,20.849,15.163,20.849z"/> <path fill="#FFFFFF" d="M22.879,16.11v-0.271c0-0.677-0.271-1.218-1.083-1.218c-0.677,0-1.083,0.271-1.083,1.083 c0,0.677,0.27,0.813,1.083,1.218l1.083,0.406c1.218,0.406,1.76,1.083,1.76,2.301c0,1.76-1.218,2.437-2.843,2.437 c-2.031,0-2.572-0.948-2.572-2.437v-0.271h1.489v0.271c0,0.948,0.27,1.489,1.218,1.489c0.813,0,1.354-0.406,1.354-1.218 c0-0.542-0.271-0.948-0.813-1.218l-1.354-0.407c-1.218-0.406-1.76-1.083-1.76-2.301c0-1.489,1.083-2.167,2.708-2.167 c2.031,0,2.437,1.219,2.437,2.167v0.406h-1.624V16.11z"/> <path fill="#FFFFFF" d="M25.181,13.809h1.083v-2.301h1.625v2.301h1.354v1.219h-1.354v4.738c0,0.677,0.135,0.813,0.677,0.813 c0.271,0,0.407,0,0.542,0v1.218c-0.406,0.136-0.812,0.136-1.354,0.136c-1.083,0-1.624-0.271-1.624-1.896v-5.009h-1.083v-1.219 H25.181z"/> <path fill="#FFFFFF" d="M31.543,22.473c0,0.542,0.406,0.948,1.218,0.948s1.354-0.542,1.354-1.489v-1.354l0,0 c-0.271,0.677-1.083,1.083-1.76,1.083c-1.896,0-2.438-1.896-2.438-4.062c0-1.76,0.271-4.062,2.572-4.062 c0.948,0,1.625,0.677,1.76,1.219l0,0v-0.948h1.489v7.582c0,1.895-0.813,3.113-2.979,3.113c-2.437,0-2.708-1.354-2.708-2.031 H31.543z M32.762,20.442c1.218,0,1.354-1.625,1.354-2.843c0-1.354-0.136-2.708-1.218-2.708c-1.218,0-1.354,1.219-1.354,2.708 C31.408,18.953,31.543,20.442,32.762,20.442z"/> <path fill="#FFFFFF" d="M37.229,13.809h1.625v1.219l0,0c0.406-0.947,0.948-1.49,1.896-1.49c0.135,0,0.27,0,0.405,0v1.625 c-0.136,0-0.405-0.135-0.677-0.135c-0.677,0-1.625,0.271-1.625,1.76v4.738h-1.625V13.809z"/> <path fill="#FFFFFF" d="M43.321,18.006v0.541c0,1.083,0.136,2.437,1.354,2.437c1.083,0,1.219-1.354,1.219-1.759h1.489 c0,1.759-1.083,2.843-2.843,2.843c-1.354,0-2.979-0.406-2.979-4.061c0-2.167,0.405-4.333,2.979-4.333 c2.302,0,2.843,1.354,2.843,3.52v0.813H43.321z M45.894,16.922v-0.406c0-0.948-0.271-1.76-1.219-1.76 c-1.083,0-1.354,0.947-1.354,2.031v0.135H45.894z"/> <path fill="#FFFFFF" d="M50.361,18.547v0.271c0,1.354,0.542,1.896,1.759,1.896c1.083,0,1.625-0.813,1.625-1.489 c0-1.083-0.542-1.625-1.488-1.896l-1.219-0.406c-1.489-0.542-2.166-1.354-2.166-2.978c0-1.895,1.354-2.979,3.248-2.979 c2.708,0,2.979,1.76,2.979,2.843v0.271h-1.76v-0.271c0-0.948-0.406-1.489-1.49-1.489c-0.677,0-1.488,0.407-1.488,1.489 c0,0.948,0.405,1.354,1.624,1.76l1.083,0.407c1.488,0.542,2.166,1.354,2.166,2.843c0,2.301-1.354,3.249-3.52,3.249 c-2.573,0-3.25-1.76-3.25-3.249v-0.271H50.361z"/> <path fill="#FFFFFF" d="M61.733,21.661c-0.407,0.271-0.948,0.406-1.625,0.406c-2.437,0-3.521-1.76-3.521-5.55 c0-3.791,1.084-5.551,3.521-5.551s3.52,1.76,3.52,5.551c0,2.03-0.406,3.384-0.812,4.197l1.082,1.083l-0.947,0.948L61.733,21.661z M60.785,18.953l0.677,0.677c0.271-0.677,0.406-1.624,0.406-3.113c0-3.52-0.812-4.197-1.76-4.197s-1.76,0.677-1.76,4.197 c0,3.655,0.812,4.332,1.76,4.332c0.271,0,0.406,0,0.677-0.135l-0.948-0.813L60.785,18.953z"/> <path fill="#FFFFFF" d="M65.117,11.237h1.76v9.206h4.062v1.489h-5.821V11.237z"/> </g> </g> </svg> </pattern><pattern id="ProcessOnPattern1037" patternUnits="userSpaceOnUse" width="75.0" height="75.0" patternTransform="matrix(1.0,0.0,0.0,1.0,0.0,0.0)"><svg version="1.1" id="图层_1" xmlns="http://www.w3.org/2000/svg" xmlns:xlink="http://www.w3.org/1999/xlink" x="0px" y="0px" width="75px" height="75px" viewBox="0 0 75 75" enable-background="new 0 0 75 75" xml:space="preserve"> <g id="Layer_1"> <polygon fill="#FFFFFF" points="37.5,73.789 69.499,55.619 69.499,19.28 37.5,37.45 "/> <polygon fill="#FFFFFF" points="5.502,55.519 37.5,73.688 37.5,37.45 5.502,19.28 "/> <polygon fill="#FFFFFF" points="69.297,19.28 37.5,1.212 5.703,19.28 37.5,37.349 "/> <polygon fill="#FFFFFF" points="37.5,36.238 67.479,19.28 67.378,19.28 "/> <polygon fill="#FFFFFF" points="7.621,19.28 7.521,19.28 37.5,36.238 37.5,36.238 "/> <polygon fill="#FFFFFF" points="37.5,36.238 37.5,36.238 37.5,36.238 "/> <path fill="#444444" d="M69.499,18.069L37.5,0L5.502,18.069l-1.01,0.605v1.211v36.339l31.999,18.169L37.5,75l1.01-0.606 l31.998-18.169V19.886v-1.211L69.499,18.069z M68.489,55.014L38.51,71.972V37.954l29.979-16.958V55.014z M36.491,71.972 L6.511,55.014V20.997l29.98,16.958V71.972z M7.621,19.28L37.5,2.322L67.378,19.28l0,0L37.5,36.238l0,0l0,0L7.621,19.28L7.621,19.28 z"/> <polygon fill="#8CC64F" points="37.602,57.033 54.862,47.241 54.862,27.759 37.602,37.551 "/> <polygon fill="#8CC64F" points="20.138,47.241 37.399,57.033 37.399,37.551 20.138,27.759 "/> <polygon fill="#8CC64F" points="54.66,27.457 37.5,17.766 20.34,27.457 37.5,37.248 "/> <polygon fill="#96BF3D" points="37.5,36.238 52.944,27.558 52.944,27.558 "/> <polygon fill="#96BF3D" points="22.057,27.558 22.057,27.558 37.5,36.238 37.5,36.238 "/> <polygon fill="#96BF3D" points="37.5,36.238 37.5,36.238 37.5,36.238 "/> <path fill="#FFFFFF" d="M54.963,26.346L37.5,16.454l-17.463,9.892l-1.009,0.605v1.211v19.785l17.463,9.892l1.009,0.605l1.01-0.605 l17.462-9.892V28.063v-1.211L54.963,26.346z M53.953,46.736L38.51,55.519V38.055l15.443-8.781V46.736z M36.491,55.519 l-15.444-8.782V29.273l15.444,8.781V55.519z M22.057,27.558L37.5,18.775l15.444,8.681l0,0L37.5,36.238l0,0l0,0L22.057,27.558 L22.057,27.558z"/> </g> </svg> </pattern><pattern id="ProcessOnPattern1042" patternUnits="userSpaceOnUse" width="75.0" height="75.0" patternTransform="matrix(1.0,0.0,0.0,1.0,0.0,0.0)"><svg version="1.1" id="图层_1" xmlns="http://www.w3.org/2000/svg" xmlns:xlink="http://www.w3.org/1999/xlink" x="0px" y="0px" width="75px" height="75px" viewBox="0 0 75 75" enable-background="new 0 0 75 75" xml:space="preserve"> <g id="Layer_1"> <polygon fill="#FFFFFF" points="37.5,73.789 69.499,55.619 69.499,19.28 37.5,37.45 "/> <polygon fill="#FFFFFF" points="5.502,55.519 37.5,73.688 37.5,37.45 5.502,19.28 "/> <polygon fill="#FFFFFF" points="69.297,19.28 37.5,1.212 5.703,19.28 37.5,37.349 "/> <polygon fill="#FFFFFF" points="37.5,36.238 67.479,19.28 67.378,19.28 "/> <polygon fill="#FFFFFF" points="7.621,19.28 7.521,19.28 37.5,36.238 37.5,36.238 "/> <polygon fill="#FFFFFF" points="37.5,36.238 37.5,36.238 37.5,36.238 "/> <path fill="#444444" d="M69.499,18.069L37.5,0L5.502,18.069l-1.01,0.605v1.211v36.339l31.999,18.169L37.5,75l1.01-0.606 l31.998-18.169V19.886v-1.211L69.499,18.069z M68.489,55.014L38.51,71.972V37.954l29.979-16.958V55.014z M36.491,71.972 L6.511,55.014V20.997l29.98,16.958V71.972z M7.621,19.28L37.5,2.322L67.378,19.28l0,0L37.5,36.238l0,0l0,0L7.621,19.28L7.621,19.28 z"/> <polygon fill="#FFD44F" points="37.602,57.033 54.862,47.241 54.862,27.759 37.602,37.551 "/> <polygon fill="#FFD44F" points="20.138,47.241 37.399,57.033 37.399,37.551 20.138,27.759 "/> <polygon fill="#FFD44F" points="54.66,27.558 37.5,17.766 20.34,27.558 37.5,37.248 "/> <polygon fill="#96BF3D" points="37.5,36.238 52.944,27.558 52.944,27.558 "/> <polygon fill="#96BF3D" points="22.057,27.558 22.057,27.558 37.5,36.238 37.5,36.238 "/> <polygon fill="#96BF3D" points="37.5,36.238 37.5,36.238 37.5,36.238 "/> <path fill="#FFFFFF" d="M54.963,26.346L37.5,16.454l-17.463,9.892l-1.009,0.605v1.211v19.785l17.463,9.892l1.009,0.605l1.01-0.605 l17.462-9.892V28.063v-1.211L54.963,26.346z M53.953,46.736L38.51,55.519V38.055l15.443-8.781V46.736z M36.491,55.519 l-15.444-8.782V29.273l15.444,8.781V55.519z M22.057,27.558L37.5,18.775l15.444,8.681l0,0L37.5,36.238l0,0l0,0L22.057,27.558 L22.057,27.558z"/> </g> </svg> </pattern><pattern id="ProcessOnPattern1047" patternUnits="userSpaceOnUse" width="240.0" height="240.0" patternTransform="matrix(1.4708333333333334,0.0,0.0,1.009375,0.0,0.0)"><svg version="1.1" id="svg2" xmlns:svg="http://www.w3.org/2000/svg" xmlns:dc="http://purl.org/dc/elements/1.1/" xmlns:cc="http://creativecommons.org/ns#" xmlns:rdf="http://www.w3.org/1999/02/22-rdf-syntax-ns#" xmlns="http://www.w3.org/2000/svg" xmlns:xlink="http://www.w3.org/1999/xlink" x="0px" y="0px" width="240px" height="240px" viewBox="0 0 240 240" enable-background="new 0 0 240 240" xml:space="preserve"> <path fill="none" stroke="#000000" stroke-width="2" stroke-miterlimit="10" stroke-dasharray="20,8,2,8" d="M239,219.96 c0,10.518-8.524,19.04-19.04,19.04H20.04C9.524,239,1,230.478,1,219.96V20.04C1,9.524,9.524,1,20.04,1h199.92 C230.476,1,239,9.524,239,20.04V219.96z"/> </svg> </pattern><pattern id="ProcessOnPattern1050" patternUnits="userSpaceOnUse" width="75.0" height="50.0" patternTransform="matrix(1.0,0.0,0.0,1.0,0.0,0.0)"><svg version="1.1" id="图层_1" xmlns:dc="http://purl.org/dc/elements/1.1/" xmlns:cc="http://creativecommons.org/ns#" xmlns:rdf="http://www.w3.org/1999/02/22-rdf-syntax-ns#" xmlns="http://www.w3.org/2000/svg" xmlns:xlink="http://www.w3.org/1999/xlink" x="0px" y="0px" width="75px" height="50px" viewBox="0 0 75 50" enable-background="new 0 0 75 50" xml:space="preserve"> <path fill="#00BCF2" d="M2.456,49.776C0.981,49.32,0.008,48.352,0,45.966c-0.002-0.533,1.559-9.798,3.856-22.887L7.718,1.086 c0.094-0.55,0.364-0.982,0.94-1.033l29.095-0.037c28.444-0.036,29.104-0.03,29.556,0.247c0.295,0.181,0.546,0.511,0.694,0.922 c0.128,0.352,1.764,10.304,3.631,22.116c3.81,24.083,3.764,23.467,2.858,24.876c-0.723,1.127-1.389,1.713-2.215,1.696 C71.93,49.865,57.541,50.005,37.433,50C7.57,49.996,3.075,49.966,2.456,49.776z M42.509,38.9c0-0.896-0.661-1.414-1.435-1.124 c-0.223,0.082-1.082,0.828-1.912,1.653l-1.508,1.503V31.49v-9.443l4.709,4.721l4.707,4.723l-2.203,0.075 c-2.387,0.079-2.692,0.182-2.887,0.955c-0.115,0.463,0.25,1.066,0.766,1.265c0.203,0.077,2.218,0.142,4.479,0.142h4.107v-4.36 v-4.361l-0.359-0.363c-0.377-0.378-0.938-0.466-1.398-0.218c-0.459,0.247-0.594,0.992-0.594,3.307v2.229l-5.662-5.681l-5.664-5.681 v-2.987v-2.985l0.574-0.293c2.145-1.098,2.6-4.154,0.879-5.898c-2.329-2.359-6.325-0.75-6.351,2.556 c-0.004,1.408,0.887,2.94,2.186,3.483l0.36,0.137v2.92v2.919l-5.588,5.607l-5.589,5.609v-2.333c0-2.277-0.008-2.338-0.361-2.692 c-0.375-0.378-0.938-0.466-1.398-0.218c-0.517,0.277-0.594,0.953-0.594,5.192v4.11h4.096c4.223,0,4.896-0.079,5.172-0.598 c0.272-0.511,0.167-1.135-0.244-1.46c-0.354-0.279-0.584-0.304-2.647-0.304c-1.243,0-2.259-0.051-2.259-0.11 c0-0.146,9.157-9.336,9.301-9.336c0.061,0,0.111,4.265,0.111,9.48v9.481l-1.581-1.577c-0.87-0.864-1.763-1.646-1.985-1.728 c-0.771-0.29-1.434,0.23-1.434,1.122c0,0.343,0.531,0.947,3.051,3.479l3.051,3.063l3.053-3.062 C41.986,39.839,42.508,39.247,42.509,38.9L42.509,38.9z"/> </svg> </pattern><pattern id="ProcessOnPattern1055" patternUnits="userSpaceOnUse" width="240.0" height="240.0" patternTransform="matrix(0.5208333333333334,0.0,0.0,0.9020833333333333,0.0,0.0)"><svg version="1.1" id="svg2" xmlns:svg="http://www.w3.org/2000/svg" xmlns:dc="http://purl.org/dc/elements/1.1/" xmlns:cc="http://creativecommons.org/ns#" xmlns:rdf="http://www.w3.org/1999/02/22-rdf-syntax-ns#" xmlns="http://www.w3.org/2000/svg" xmlns:xlink="http://www.w3.org/1999/xlink" x="0px" y="0px" width="240px" height="240px" viewBox="0 0 240 240" enable-background="new 0 0 240 240" xml:space="preserve"> <path fill="none" stroke="#000000" stroke-width="2" stroke-miterlimit="10" stroke-dasharray="20,8,2,8" d="M239,219.96 c0,10.518-8.524,19.04-19.04,19.04H20.04C9.524,239,1,230.478,1,219.96V20.04C1,9.524,9.524,1,20.04,1h199.92 C230.476,1,239,9.524,239,20.04V219.96z"/> </svg> </pattern><pattern id="ProcessOnPattern1058" patternUnits="userSpaceOnUse" width="75.0" height="75.0" patternTransform="matrix(1.06,0.0,0.0,0.9733333333333334,0.0,0.0)"><svg version="1.1" id="图层_1" xmlns="http://www.w3.org/2000/svg" xmlns:xlink="http://www.w3.org/1999/xlink" x="0px" y="0px" width="75px" height="75px" viewBox="0 0 75 75" enable-background="new 0 0 75 75" xml:space="preserve"> <g id="Layer_1"> <polygon fill="#FFFFFF" points="37.5,73.789 69.499,55.619 69.499,19.28 37.5,37.45 "/> <polygon fill="#FFFFFF" points="5.502,55.519 37.5,73.688 37.5,37.45 5.502,19.28 "/> <polygon fill="#FFFFFF" points="69.297,19.28 37.5,1.212 5.703,19.28 37.5,37.349 "/> <polygon fill="#FFFFFF" points="37.5,36.238 67.479,19.28 67.378,19.28 "/> <polygon fill="#FFFFFF" points="7.621,19.28 7.521,19.28 37.5,36.238 37.5,36.238 "/> <polygon fill="#FFFFFF" points="37.5,36.238 37.5,36.238 37.5,36.238 "/> <path fill="#444444" d="M69.499,18.069L37.5,0L5.502,18.069l-1.01,0.605v1.211v36.339l31.999,18.169L37.5,75l1.01-0.606 l31.998-18.169V19.886v-1.211L69.499,18.069z M68.489,55.014L38.51,71.972V37.954l29.979-16.958V55.014z M36.491,71.972 L6.511,55.014V20.997l29.98,16.958V71.972z M7.621,19.28L37.5,2.322L67.378,19.28l0,0L37.5,36.238l0,0l0,0L7.621,19.28L7.621,19.28 z"/> <polygon fill="#FFD44F" points="37.602,57.033 54.862,47.241 54.862,27.759 37.602,37.551 "/> <polygon fill="#FFD44F" points="20.138,47.241 37.399,57.033 37.399,37.551 20.138,27.759 "/> <polygon fill="#FFD44F" points="54.66,27.558 37.5,17.766 20.34,27.558 37.5,37.248 "/> <polygon fill="#96BF3D" points="37.5,36.238 52.944,27.558 52.944,27.558 "/> <polygon fill="#96BF3D" points="22.057,27.558 22.057,27.558 37.5,36.238 37.5,36.238 "/> <polygon fill="#96BF3D" points="37.5,36.238 37.5,36.238 37.5,36.238 "/> <path fill="#FFFFFF" d="M54.963,26.346L37.5,16.454l-17.463,9.892l-1.009,0.605v1.211v19.785l17.463,9.892l1.009,0.605l1.01-0.605 l17.462-9.892V28.063v-1.211L54.963,26.346z M53.953,46.736L38.51,55.519V38.055l15.443-8.781V46.736z M36.491,55.519 l-15.444-8.782V29.273l15.444,8.781V55.519z M22.057,27.558L37.5,18.775l15.444,8.681l0,0L37.5,36.238l0,0l0,0L22.057,27.558 L22.057,27.558z"/> </g> </svg> </pattern><marker id="ProcessOnMarker1064" markerUnits="userSpaceOnUse" orient="auto" markerWidth="16.23606797749979" markerHeight="10.550836550532098" viewBox="-1.0 -1.3763819204711736 16.23606797749979 10.550836550532098" refX="15.23606797749979" refY="3.8990363547948754"><path id="ProcessOnPath1065" d="M12.0 3.8990363547948754L0.0 7.798072709589751V0.0Z" stroke="#323232" stroke-width="2.0" fill="#323232" transform="matrix(-1.0,1.2246467991473532E-16,-1.2246467991473532E-16,-1.0,14.23606797749979,7.798072709589751)"/></marker><marker id="ProcessOnMarker1066" markerUnits="userSpaceOnUse" orient="auto" markerWidth="16.23606797749979" markerHeight="10.550836550532098" viewBox="-1.0 -1.3763819204711736 16.23606797749979 10.550836550532098" refX="-1.0" refY="3.8990363547948754"><path id="ProcessOnPath1067" d="M12.0 3.8990363547948754L0.0 7.798072709589751V0.0Z" stroke="#323232" stroke-width="2.0" fill="#323232" transform="matrix(1.0,0.0,0.0,1.0,0.0,0.0)"/></marker><marker id="ProcessOnMarker1073" markerUnits="userSpaceOnUse" orient="auto" markerWidth="16.23606797749979" markerHeight="10.550836550532098" viewBox="-1.0 -1.3763819204711736 16.23606797749979 10.550836550532098" refX="15.23606797749979" refY="3.8990363547948754"><path id="ProcessOnPath1074" d="M12.0 3.8990363547948754L0.0 7.798072709589751V0.0Z" stroke="#323232" stroke-width="2.0" fill="#323232" transform="matrix(-1.0,1.2246467991473532E-16,-1.2246467991473532E-16,-1.0,14.23606797749979,7.798072709589751)"/></marker><marker id="ProcessOnMarker1075" markerUnits="userSpaceOnUse" orient="auto" markerWidth="16.23606797749979" markerHeight="10.550836550532098" viewBox="-1.0 -1.3763819204711736 16.23606797749979 10.550836550532098" refX="-1.0" refY="3.8990363547948754"><path id="ProcessOnPath1076" d="M12.0 3.8990363547948754L0.0 7.798072709589751V0.0Z" stroke="#323232" stroke-width="2.0" fill="#323232" transform="matrix(1.0,0.0,0.0,1.0,0.0,0.0)"/></marker><marker id="ProcessOnMarker1079" markerUnits="userSpaceOnUse" orient="auto" markerWidth="16.23606797749979" markerHeight="10.550836550532098" viewBox="-1.0 -1.3763819204711736 16.23606797749979 10.550836550532098" refX="15.23606797749979" refY="3.8990363547948754"><path id="ProcessOnPath1080" d="M12.0 3.8990363547948754L0.0 7.798072709589751V0.0Z" stroke="#323232" stroke-width="2.0" fill="#323232" transform="matrix(-1.0,1.2246467991473532E-16,-1.2246467991473532E-16,-1.0,14.23606797749979,7.798072709589751)"/></marker><marker id="ProcessOnMarker1081" markerUnits="userSpaceOnUse" orient="auto" markerWidth="16.23606797749979" markerHeight="10.550836550532098" viewBox="-1.0 -1.3763819204711736 16.23606797749979 10.550836550532098" refX="-1.0" refY="3.8990363547948754"><path id="ProcessOnPath1082" d="M12.0 3.8990363547948754L0.0 7.798072709589751V0.0Z" stroke="#323232" stroke-width="2.0" fill="#323232" transform="matrix(1.0,0.0,0.0,1.0,0.0,0.0)"/></marker><marker id="ProcessOnMarker1085" markerUnits="userSpaceOnUse" orient="auto" markerWidth="16.23606797749979" markerHeight="10.550836550532098" viewBox="-1.0 -1.3763819204711736 16.23606797749979 10.550836550532098" refX="15.23606797749979" refY="3.8990363547948754"><path id="ProcessOnPath1086" d="M12.0 3.8990363547948754L0.0 7.798072709589751V0.0Z" stroke="#323232" stroke-width="2.0" fill="#323232" transform="matrix(-1.0,1.2246467991473532E-16,-1.2246467991473532E-16,-1.0,14.23606797749979,7.798072709589751)"/></marker><marker id="ProcessOnMarker1087" markerUnits="userSpaceOnUse" orient="auto" markerWidth="16.23606797749979" markerHeight="10.550836550532098" viewBox="-1.0 -1.3763819204711736 16.23606797749979 10.550836550532098" refX="-1.0" refY="3.8990363547948754"><path id="ProcessOnPath1088" d="M12.0 3.8990363547948754L0.0 7.798072709589751V0.0Z" stroke="#323232" stroke-width="2.0" fill="#323232" transform="matrix(1.0,0.0,0.0,1.0,0.0,0.0)"/></marker><pattern id="ProcessOnPattern1094" patternUnits="userSpaceOnUse" width="75.0" height="75.0" patternTransform="matrix(1.06,0.0,0.0,0.9733333333333334,0.0,0.0)"><svg version="1.1" id="图层_1" xmlns="http://www.w3.org/2000/svg" xmlns:xlink="http://www.w3.org/1999/xlink" x="0px" y="0px" width="75px" height="75px" viewBox="0 0 75 75" enable-background="new 0 0 75 75" xml:space="preserve"> <g id="Layer_1"> <polygon fill="#FFFFFF" points="37.5,73.789 69.499,55.619 69.499,19.28 37.5,37.45 "/> <polygon fill="#FFFFFF" points="5.502,55.519 37.5,73.688 37.5,37.45 5.502,19.28 "/> <polygon fill="#FFFFFF" points="69.297,19.28 37.5,1.212 5.703,19.28 37.5,37.349 "/> <polygon fill="#FFFFFF" points="37.5,36.238 67.479,19.28 67.378,19.28 "/> <polygon fill="#FFFFFF" points="7.621,19.28 7.521,19.28 37.5,36.238 37.5,36.238 "/> <polygon fill="#FFFFFF" points="37.5,36.238 37.5,36.238 37.5,36.238 "/> <path fill="#444444" d="M69.499,18.069L37.5,0L5.502,18.069l-1.01,0.605v1.211v36.339l31.999,18.169L37.5,75l1.01-0.606 l31.998-18.169V19.886v-1.211L69.499,18.069z M68.489,55.014L38.51,71.972V37.954l29.979-16.958V55.014z M36.491,71.972 L6.511,55.014V20.997l29.98,16.958V71.972z M7.621,19.28L37.5,2.322L67.378,19.28l0,0L37.5,36.238l0,0l0,0L7.621,19.28L7.621,19.28 z"/> <polygon fill="#FFD44F" points="37.602,57.033 54.862,47.241 54.862,27.759 37.602,37.551 "/> <polygon fill="#FFD44F" points="20.138,47.241 37.399,57.033 37.399,37.551 20.138,27.759 "/> <polygon fill="#FFD44F" points="54.66,27.558 37.5,17.766 20.34,27.558 37.5,37.248 "/> <polygon fill="#96BF3D" points="37.5,36.238 52.944,27.558 52.944,27.558 "/> <polygon fill="#96BF3D" points="22.057,27.558 22.057,27.558 37.5,36.238 37.5,36.238 "/> <polygon fill="#96BF3D" points="37.5,36.238 37.5,36.238 37.5,36.238 "/> <path fill="#FFFFFF" d="M54.963,26.346L37.5,16.454l-17.463,9.892l-1.009,0.605v1.211v19.785l17.463,9.892l1.009,0.605l1.01-0.605 l17.462-9.892V28.063v-1.211L54.963,26.346z M53.953,46.736L38.51,55.519V38.055l15.443-8.781V46.736z M36.491,55.519 l-15.444-8.782V29.273l15.444,8.781V55.519z M22.057,27.558L37.5,18.775l15.444,8.681l0,0L37.5,36.238l0,0l0,0L22.057,27.558 L22.057,27.558z"/> </g> </svg> </pattern><pattern id="ProcessOnPattern1099" patternUnits="userSpaceOnUse" width="225.0" height="100.0"><image id="ProcessOnImage1100" xlink:href="https://neo4j.com//wp-content/themes/neo4jweb/assets/images/neo4j-logo-2015.png" width="225.0" height="100.0" transform="matrix(1.0,0.0,0.0,1.0,0.0,0.0)"/></pattern><pattern id="ProcessOnPattern1103" patternUnits="userSpaceOnUse" width="240.0" height="240.0" patternTransform="matrix(1.0729166666666667,0.0,0.0,0.81875,0.0,0.0)"><svg version="1.1" id="svg2" xmlns:svg="http://www.w3.org/2000/svg" xmlns:dc="http://purl.org/dc/elements/1.1/" xmlns:cc="http://creativecommons.org/ns#" xmlns:rdf="http://www.w3.org/1999/02/22-rdf-syntax-ns#" xmlns="http://www.w3.org/2000/svg" xmlns:xlink="http://www.w3.org/1999/xlink" x="0px" y="0px" width="240px" height="240px" viewBox="0 0 240 240" enable-background="new 0 0 240 240" xml:space="preserve"> <path fill="none" stroke="#000000" stroke-width="2" stroke-miterlimit="10" stroke-dasharray="20,8,2,8" d="M239,219.96 c0,10.518-8.524,19.04-19.04,19.04H20.04C9.524,239,1,230.478,1,219.96V20.04C1,9.524,9.524,1,20.04,1h199.92 C230.476,1,239,9.524,239,20.04V219.96z"/> </svg> </pattern><marker id="ProcessOnMarker1106" markerUnits="userSpaceOnUse" orient="auto" markerWidth="16.23606797749979" markerHeight="10.550836550532098" viewBox="-1.0 -1.3763819204711736 16.23606797749979 10.550836550532098" refX="15.23606797749979" refY="3.8990363547948754"><path id="ProcessOnPath1107" d="M12.0 3.8990363547948754L0.0 7.798072709589751V0.0Z" stroke="#323232" stroke-width="2.0" fill="#323232" transform="matrix(-1.0,1.2246467991473532E-16,-1.2246467991473532E-16,-1.0,14.23606797749979,7.798072709589751)"/></marker><marker id="ProcessOnMarker1108" markerUnits="userSpaceOnUse" orient="auto" markerWidth="16.23606797749979" markerHeight="10.550836550532098" viewBox="-1.0 -1.3763819204711736 16.23606797749979 10.550836550532098" refX="-1.0" refY="3.8990363547948754"><path id="ProcessOnPath1109" d="M12.0 3.8990363547948754L0.0 7.798072709589751V0.0Z" stroke="#323232" stroke-width="2.0" fill="#323232" transform="matrix(1.0,0.0,0.0,1.0,0.0,0.0)"/></marker><marker id="ProcessOnMarker1115" markerUnits="userSpaceOnUse" orient="auto" markerWidth="16.23606797749979" markerHeight="10.550836550532098" viewBox="-1.0 -1.3763819204711736 16.23606797749979 10.550836550532098" refX="15.23606797749979" refY="3.8990363547948754"><path id="ProcessOnPath1116" d="M12.0 3.8990363547948754L0.0 7.798072709589751V0.0Z" stroke="#323232" stroke-width="2.0" fill="#323232" transform="matrix(-1.0,1.2246467991473532E-16,-1.2246467991473532E-16,-1.0,14.23606797749979,7.798072709589751)"/></marker><marker id="ProcessOnMarker1117" markerUnits="userSpaceOnUse" orient="auto" markerWidth="16.23606797749979" markerHeight="10.550836550532098" viewBox="-1.0 -1.3763819204711736 16.23606797749979 10.550836550532098" refX="-1.0" refY="3.8990363547948754"><path id="ProcessOnPath1118" d="M12.0 3.8990363547948754L0.0 7.798072709589751V0.0Z" stroke="#323232" stroke-width="2.0" fill="#323232" transform="matrix(1.0,0.0,0.0,1.0,0.0,0.0)"/></marker><pattern id="ProcessOnPattern1124" patternUnits="userSpaceOnUse" width="91.0" height="81.0"><image id="ProcessOnImage1125" xlink:href="http://test.processon.com/file/id/59462961e4b0848d3ed1047f/diagram_user_image" width="91.0" height="81.0" transform="matrix(1.0,0.0,0.0,1.0,0.0,0.0)"/></pattern><pattern id="ProcessOnPattern1128" patternUnits="userSpaceOnUse" width="91.0" height="81.0"><image id="ProcessOnImage1129" xlink:href="http://test.processon.com/file/id/59462961e4b0848d3ed1047f/diagram_user_image" width="91.0" height="81.0" transform="matrix(1.0,0.0,0.0,1.0,0.0,0.0)"/></pattern><pattern id="ProcessOnPattern1144" patternUnits="userSpaceOnUse" width="112.0" height="111.0"><image id="ProcessOnImage1145" xlink:href="https://cdn3.iconfinder.com/data/icons/lexter-flat-colorfull-file-formats/56/log-128.png" width="112.0" height="112.0" transform="matrix(1.0,0.0,0.0,1.0,0.0,-0.5)"/></pattern><marker id="ProcessOnMarker1148" markerUnits="userSpaceOnUse" orient="auto" markerWidth="16.23606797749979" markerHeight="10.550836550532098" viewBox="-1.0 -1.3763819204711736 16.23606797749979 10.550836550532098" refX="15.23606797749979" refY="3.8990363547948754"><path id="ProcessOnPath1149" d="M12.0 3.8990363547948754L0.0 7.798072709589751V0.0Z" stroke="#323232" stroke-width="2.0" fill="#323232" transform="matrix(-1.0,1.2246467991473532E-16,-1.2246467991473532E-16,-1.0,14.23606797749979,7.798072709589751)"/></marker><marker id="ProcessOnMarker1150" markerUnits="userSpaceOnUse" orient="auto" markerWidth="16.23606797749979" markerHeight="10.550836550532098" viewBox="-1.0 -1.3763819204711736 16.23606797749979 10.550836550532098" refX="-1.0" refY="3.8990363547948754"><path id="ProcessOnPath1151" d="M12.0 3.8990363547948754L0.0 7.798072709589751V0.0Z" stroke="#323232" stroke-width="2.0" fill="#323232" transform="matrix(1.0,0.0,0.0,1.0,0.0,0.0)"/></marker><marker id="ProcessOnMarker1157" markerUnits="userSpaceOnUse" orient="auto" markerWidth="16.23606797749979" markerHeight="10.550836550532098" viewBox="-1.0 -1.3763819204711736 16.23606797749979 10.550836550532098" refX="15.23606797749979" refY="3.8990363547948754"><path id="ProcessOnPath1158" d="M12.0 3.8990363547948754L0.0 7.798072709589751V0.0Z" stroke="#323232" stroke-width="2.0" fill="#323232" transform="matrix(-1.0,1.2246467991473532E-16,-1.2246467991473532E-16,-1.0,14.23606797749979,7.798072709589751)"/></marker><marker id="ProcessOnMarker1159" markerUnits="userSpaceOnUse" orient="auto" markerWidth="16.23606797749979" markerHeight="10.550836550532098" viewBox="-1.0 -1.3763819204711736 16.23606797749979 10.550836550532098" refX="-1.0" refY="3.8990363547948754"><path id="ProcessOnPath1160" d="M12.0 3.8990363547948754L0.0 7.798072709589751V0.0Z" stroke="#323232" stroke-width="2.0" fill="#323232" transform="matrix(1.0,0.0,0.0,1.0,0.0,0.0)"/></marker><pattern id="ProcessOnPattern1178" patternUnits="userSpaceOnUse" width="75.0" height="72.0" patternTransform="matrix(1.0,0.0,0.0,1.0,0.0,0.0)"><svg version="1.1" id="Layer_1" xmlns="http://www.w3.org/2000/svg" xmlns:xlink="http://www.w3.org/1999/xlink" x="0px" y="0px" width="75px" height="72px" viewBox="0 0 75 72" enable-background="new 0 0 75 72" xml:space="preserve"> <g> <path fill="#7D7C7C" d="M63.244,29.542c6.9,0,11.756,4.349,11.756,10.614v13.556h-6.135v-9.207h-1.66v9.207h-9.327 c-0.64-6.905-6.133-11.509-13.927-11.509h-5.365v-3.71c6.004-0.511,10.73-2.813,11.243-8.823c0.256,0,0.383,0,0.51,0h12.905V29.542 z"/> <path fill="#7D7C7C" d="M24.531,29.542c0.255,0,0.383,0,0.511,0c0.512,6.011,5.238,8.313,11.244,8.824v3.708h-5.239 c-7.794,0-13.287,4.732-13.927,11.511H8.049v-9.209H6.388v9.209H0V40.156c0-6.266,4.854-10.614,11.754-10.614H24.531z"/> <path fill="#7D7C7C" d="M43.951,47.829c6.898,0,11.755,4.35,11.755,10.614V72h-6.133v-9.207h-1.661V72H27.214v-9.207h-1.66V72 h-6.389V58.444c0-6.266,4.854-10.615,11.754-10.615H43.951L43.951,47.829z"/> <path fill="#7D7C7C" d="M18.143,3.197l10.222,7.29v3.197c0,5.755-4.601,10.486-10.222,10.486c-5.622,0-10.222-4.731-10.222-10.87 v-2.94L18.143,3.197z"/> <path fill="#7D7C7C" d="M56.729,3.197l10.222,7.29v3.197c0,5.755-4.601,10.486-10.222,10.486s-10.223-4.731-10.223-10.87v-2.94 L56.729,3.197z"/> <path fill="#7D7C7C" d="M37.436,17.393l9.07,6.395v2.813c0,5.115-4.087,9.208-9.07,9.208c-4.982,0-9.071-4.093-9.071-9.72v-2.431 L37.436,17.393z"/> <path fill="#D2D3D3" d="M56.855,0c5.621,0,10.223,4.731,10.223,10.359c0,5.755-4.602,10.486-10.223,10.486 s-10.222-4.732-10.222-10.486C46.634,4.604,51.234,0,56.855,0z"/> <path fill="#D2D3D3" d="M37.436,14.195c4.983,0,9.07,4.094,9.07,9.209s-4.087,9.208-9.07,9.208c-4.982,0-9.071-4.092-9.071-9.208 C28.364,18.416,32.453,14.195,37.436,14.195z"/> <path fill="#D2D3D3" d="M63.244,26.345c6.9,0,11.756,4.349,11.756,10.614v13.557h-6.135v-9.208h-1.66v9.208h-9.327 c-0.64-6.905-6.133-11.51-13.927-11.51h-5.365v-1.15c6.004-0.514,10.73-5.372,11.243-11.382c0.256,0,0.383,0,0.51,0h12.905V26.345z "/> <path fill="#D2D3D3" d="M24.531,26.345c0.255,0,0.383,0,0.511,0c0.512,6.011,5.238,10.87,11.244,11.384v1.149h-5.239 c-7.794,0-13.287,4.732-13.927,11.51H8.049v-9.209H6.388v9.209H0V36.959c0-6.266,4.854-10.614,11.754-10.614H24.531z"/> <path fill="#D2D3D3" d="M43.951,44.632c6.898,0,11.755,4.349,11.755,10.614v13.556h-6.133v-9.206h-1.661v9.206H27.214v-9.206h-1.66 v9.206h-6.389V55.246c0-6.266,4.854-10.613,11.754-10.613L43.951,44.632L43.951,44.632z"/> <path fill="#D2D3D3" d="M18.143,0c5.621,0,10.222,4.731,10.222,10.359c0,5.755-4.601,10.486-10.222,10.486 c-5.622,0-10.222-4.732-10.222-10.486C7.921,4.731,12.521,0,18.143,0z"/> </g> </svg> </pattern></defs><g id="ProcessOnG1002"><path id="ProcessOnPath1003" d="M122.5 32.5H1020.0V900.8333333333337H122.5V32.5Z" fill="none"/><g id="ProcessOnG1004"><g id="ProcessOnG1005" transform="matrix(1.0,0.0,0.0,1.0,646.5925925925922,653.4444444444441)" opacity="1.0"><path id="ProcessOnPath1006" d="M0.0 0.0L125.0 0.0L125.0 204.0L0.0 204.0Z" stroke="#323232" stroke-width="0.0" stroke-dasharray="none" opacity="1.0" fill="url(#ProcessOnPattern1007)"/></g><g id="ProcessOnG1008" transform="matrix(1.0,0.0,0.0,1.0,325.5260631001373,646.6632373113853)" opacity="1.0"><path id="ProcessOnPath1009" d="M0.0 0.0L137.5349794238691 0.0L137.5349794238691 228.7448559670786L0.0 228.7448559670786Z" stroke="#323232" stroke-width="0.0" stroke-dasharray="none" opacity="1.0" fill="url(#ProcessOnPattern1010)"/></g><g id="ProcessOnG1011" transform="matrix(1.0,0.0,0.0,1.0,328.9197530864197,754.1666666666669)" opacity="1.0"><path id="ProcessOnPath1012" d="M0.0 0.0L129.41975308641966 0.0L129.41975308641966 94.99999999999977L0.0 94.99999999999977Z" stroke="#323232" stroke-width="0.0" stroke-dasharray="none" opacity="1.0" fill="url(#ProcessOnPattern1013)"/></g><g id="ProcessOnG1015" transform="matrix(1.0,0.0,0.0,1.0,651.0,63.5)" opacity="1.0"><path id="ProcessOnPath1016" d="M0.0 0.0L62.0 0.0L62.0 75.0L0.0 75.0Z" stroke="#323232" stroke-width="0.0" stroke-dasharray="none" opacity="1.0" fill="url(#ProcessOnPattern1017)"/><g id="ProcessOnG1018" transform="matrix(1.0,0.0,0.0,1.0,-20.0,81.875)"><text id="ProcessOnText1019" fill="#000000" font-weight="normal" font-style="normal" text-decoration="none" font-family="微软雅黑" text-anchor="middle" font-size="13" x="50.0" y="13.325">api gateway</text></g></g><g id="ProcessOnG1020" transform="matrix(1.0,0.0,0.0,1.0,669.5,669.5)" opacity="1.0"><path id="ProcessOnPath1021" d="M0.0 0.0L77.0 0.0L77.0 50.0L0.0 50.0Z" stroke="#323232" stroke-width="0.0" stroke-dasharray="none" opacity="1.0" fill="url(#ProcessOnPattern1022)"/><g id="ProcessOnG1023" transform="matrix(1.0,0.0,0.0,1.0,-20.0,56.875)"><text id="ProcessOnText1024" fill="#000000" font-weight="normal" font-style="normal" text-decoration="none" font-family="微软雅黑" text-anchor="middle" font-size="13" x="57.5" y="13.325">message</text></g></g><g id="ProcessOnG1025" transform="matrix(1.0,0.0,0.0,1.0,543.0,179.5)" opacity="1.0"><path id="ProcessOnPath1026" d="M0.0 0.0L75.0 0.0L75.0 75.0L0.0 75.0Z" stroke="#323232" stroke-width="0.0" stroke-dasharray="none" opacity="1.0" fill="url(#ProcessOnPattern1027)"/><g id="ProcessOnG1028" transform="matrix(1.0,0.0,0.0,1.0,-20.0,81.875)"><text id="ProcessOnText1029" fill="#000000" font-weight="normal" font-style="normal" text-decoration="none" font-family="微软雅黑" text-anchor="middle" font-size="13" x="56.5" y="13.325">kong-dokcer</text></g></g><g id="ProcessOnG1030" transform="matrix(1.0,0.0,0.0,1.0,659.0,179.5)" opacity="1.0"><path id="ProcessOnPath1031" d="M0.0 0.0L75.0 0.0L75.0 75.0L0.0 75.0Z" stroke="#323232" stroke-width="0.0" stroke-dasharray="none" opacity="1.0" fill="url(#ProcessOnPattern1032)"/><g id="ProcessOnG1033" transform="matrix(1.0,0.0,0.0,1.0,-20.0,81.875)"><text id="ProcessOnText1034" fill="#000000" font-weight="normal" font-style="normal" text-decoration="none" font-family="微软雅黑" text-anchor="middle" font-size="13" x="56.5" y="13.325">kong-database</text></g></g><g id="ProcessOnG1035" transform="matrix(1.0,0.0,0.0,1.0,422.0,179.5)" opacity="1.0"><path id="ProcessOnPath1036" d="M0.0 0.0L75.0 0.0L75.0 75.0L0.0 75.0Z" stroke="#323232" stroke-width="0.0" stroke-dasharray="none" opacity="1.0" fill="url(#ProcessOnPattern1037)"/><g id="ProcessOnG1038" transform="matrix(1.0,0.0,0.0,1.0,-20.0,81.875)"><text id="ProcessOnText1039" fill="#000000" font-weight="normal" font-style="normal" text-decoration="none" font-family="微软雅黑" text-anchor="middle" font-size="13" x="56.5" y="13.325">kong-dashboard</text></g></g><g id="ProcessOnG1040" transform="matrix(1.0,0.0,0.0,1.0,737.5,377.5)" opacity="1.0"><path id="ProcessOnPath1041" d="M0.0 0.0L75.0 0.0L75.0 75.0L0.0 75.0Z" stroke="#323232" stroke-width="0.0" stroke-dasharray="none" opacity="1.0" fill="url(#ProcessOnPattern1042)"/><g id="ProcessOnG1043" transform="matrix(1.0,0.0,0.0,1.0,-20.0,81.875)"><text id="ProcessOnText1044" fill="#000000" font-weight="normal" font-style="normal" text-decoration="none" font-family="微软雅黑" text-anchor="middle" font-size="13" x="56.5" y="13.325">python_env_text</text></g></g><g id="ProcessOnG1045" transform="matrix(1.0,0.0,0.0,1.0,404.0,57.75)" opacity="1.0"><path id="ProcessOnPath1046" d="M0.0 0.0L353.0 0.0L353.0 242.25L0.0 242.25Z" stroke="#323232" stroke-width="0.0" stroke-dasharray="none" opacity="1.0" fill="url(#ProcessOnPattern1047)"/></g><g id="ProcessOnG1048" transform="matrix(1.0,0.0,0.0,1.0,543.0,82.0)" opacity="1.0"><path id="ProcessOnPath1049" d="M0.0 0.0L75.0 0.0L75.0 50.0L0.0 50.0Z" stroke="#323232" stroke-width="0.0" stroke-dasharray="none" opacity="1.0" fill="url(#ProcessOnPattern1050)"/><g id="ProcessOnG1051" transform="matrix(1.0,0.0,0.0,1.0,-20.0,56.875)"><text id="ProcessOnText1052" fill="#000000" font-weight="normal" font-style="normal" text-decoration="none" font-family="微软雅黑" text-anchor="middle" font-size="13" x="56.5" y="13.325">load balance</text></g></g><g id="ProcessOnG1053" transform="matrix(1.0,0.0,0.0,1.0,713.5555555555557,367.6666666666667)" opacity="1.0"><path id="ProcessOnPath1054" d="M0.0 0.0L125.0 0.0L125.0 216.5L0.0 216.5Z" stroke="#323232" stroke-width="0.0" stroke-dasharray="none" opacity="1.0" fill="url(#ProcessOnPattern1055)"/></g><g id="ProcessOnG1056" transform="matrix(1.0,0.0,0.0,1.0,353.87962962962956,650.1666666666664)" opacity="1.0"><path id="ProcessOnPath1057" d="M0.0 0.0L79.5 0.0L79.5 73.0L0.0 73.0Z" stroke="#323232" stroke-width="0.0" stroke-dasharray="none" opacity="1.0" fill="url(#ProcessOnPattern1058)"/><g id="ProcessOnG1059" transform="matrix(1.0,0.0,0.0,1.0,-20.0,71.75)"><text id="ProcessOnText1060" fill="#000000" font-weight="normal" font-style="normal" text-decoration="none" font-family="微软雅黑" text-anchor="middle" font-size="13" x="58.75" y="13.325">python_env_crawe</text><text id="ProcessOnText1061" fill="#000000" font-weight="normal" font-style="normal" text-decoration="none" font-family="微软雅黑" text-anchor="middle" font-size="13" x="58.75" y="29.575">r</text></g></g><g id="ProcessOnG1062"><path id="ProcessOnPath1063" d="M478.29711050150615 761.0356652949246C536.507721546194 761.0356652949246 573.1459135704044 755.4444444444441 631.3565246150923 755.4444444444441" stroke="#323232" stroke-width="2.0" stroke-dasharray="none" fill="none" marker-start="url(#ProcessOnMarker1064)" marker-end="url(#ProcessOnMarker1066)"/><g id="ProcessOnG1068" transform="matrix(1.0,0.0,0.0,1.0,554.8268175582992,750.1150548696843)"><path id="ProcessOnPath1069" d="M0 0H24.0V16.25H0Z" fill="#fff" transform="matrix(1.0,0.0,0.0,1.0,-12.0,0.0)"/><text id="ProcessOnText1070" fill="#000000" font-weight="normal" font-style="normal" text-decoration="none" font-family="微软雅黑" text-anchor="middle" font-size="13" x="0.0" y="13.325">MQ</text></g></g><g id="ProcessOnG1071"><path id="ProcessOnPath1072" d="M512.2360679774998 217.0C515.4 217.0 524.6 217.0 527.7639320225002 217.0" stroke="#323232" stroke-width="2.0" stroke-dasharray="none" fill="none" marker-start="url(#ProcessOnMarker1073)" marker-end="url(#ProcessOnMarker1075)"/></g><g id="ProcessOnG1077"><path id="ProcessOnPath1078" d="M643.7639320225002 217.0C642.6 217.0 634.4 217.0 633.2360679774998 217.0" stroke="#323232" stroke-width="2.0" stroke-dasharray="none" fill="none" marker-start="url(#ProcessOnMarker1079)" marker-end="url(#ProcessOnMarker1081)"/></g><g id="ProcessOnG1083"><path id="ProcessOnPath1084" d="M590.5994550408719 315.2360679774998C590.5994550408719 378.96606156661505 776.0555555555557 288.70060510005163 776.0555555555557 352.4305986891669" stroke="#323232" stroke-width="2.0" stroke-dasharray="none" fill="none" marker-start="url(#ProcessOnMarker1085)" marker-end="url(#ProcessOnMarker1087)"/><g id="ProcessOnG1089" transform="matrix(1.0,0.0,0.0,1.0,683.3275052982139,325.7083333333333)"><path id="ProcessOnPath1090" d="M0 0H32.0V16.25H0Z" fill="#fff" transform="matrix(1.0,0.0,0.0,1.0,-16.0,0.0)"/><text id="ProcessOnText1091" fill="#000000" font-weight="normal" font-style="normal" text-decoration="none" font-family="微软雅黑" text-anchor="middle" font-size="13" x="0.0" y="13.325">HTTP</text></g></g><g id="ProcessOnG1092" transform="matrix(1.0,0.0,0.0,1.0,377.1666666666668,380.0)" opacity="1.0"><path id="ProcessOnPath1093" d="M0.0 0.0L79.5 0.0L79.5 73.0L0.0 73.0Z" stroke="#323232" stroke-width="0.0" stroke-dasharray="none" opacity="1.0" fill="url(#ProcessOnPattern1094)"/><g id="ProcessOnG1095" transform="matrix(1.0,0.0,0.0,1.0,-20.0,79.875)"><text id="ProcessOnText1096" fill="#000000" font-weight="normal" font-style="normal" text-decoration="none" font-family="微软雅黑" text-anchor="middle" font-size="13" x="58.75" y="13.325">python_env_graph</text></g></g><g id="ProcessOnG1097" transform="matrix(1.0,0.0,0.0,1.0,304.4166666666667,464.5)" opacity="1.0"><path id="ProcessOnPath1098" d="M0.0 0.0L225.0 0.0L225.0 100.0L0.0 100.0Z" stroke="#323232" stroke-width="0.0" stroke-dasharray="none" opacity="1.0" fill="url(#ProcessOnPattern1099)"/></g><g id="ProcessOnG1101" transform="matrix(1.0,0.0,0.0,1.0,288.1666666666667,368.0)" opacity="1.0"><path id="ProcessOnPath1102" d="M0.0 0.0L257.5 0.0L257.5 196.5L0.0 196.5Z" stroke="#323232" stroke-width="0.0" stroke-dasharray="none" opacity="1.0" fill="url(#ProcessOnPattern1103)"/></g><g id="ProcessOnG1104"><path id="ProcessOnPath1105" d="M416.91666666666686 579.7360679774998C416.91666666666686 686.665714265961 709.0925925925922 531.2787301784831 709.0925925925922 638.2083764669443" stroke="#323232" stroke-width="2.0" stroke-dasharray="none" fill="none" marker-start="url(#ProcessOnMarker1106)" marker-end="url(#ProcessOnMarker1108)"/><g id="ProcessOnG1110" transform="matrix(1.0,0.0,0.0,1.0,563.0046296296296,600.8472222222221)"><path id="ProcessOnPath1111" d="M0 0H24.0V16.25H0Z" fill="#fff" transform="matrix(1.0,0.0,0.0,1.0,-12.0,0.0)"/><text id="ProcessOnText1112" fill="#000000" font-weight="normal" font-style="normal" text-decoration="none" font-family="微软雅黑" text-anchor="middle" font-size="13" x="0.0" y="13.325">MQ</text></g></g><g id="ProcessOnG1113"><path id="ProcessOnPath1114" d="M416.91666666666686 352.7639320225002C416.91666666666686 293.9759406270306 588.355131698456 372.33825561514067 588.355131698456 313.550264219671" stroke="#323232" stroke-width="2.0" stroke-dasharray="none" fill="none" marker-start="url(#ProcessOnMarker1115)" marker-end="url(#ProcessOnMarker1117)"/><g id="ProcessOnG1119" transform="matrix(1.0,0.0,0.0,1.0,502.6358991825614,325.03209812108565)"><path id="ProcessOnPath1120" d="M0 0H32.0V16.25H0Z" fill="#fff" transform="matrix(1.0,0.0,0.0,1.0,-16.0,0.0)"/><text id="ProcessOnText1121" fill="#000000" font-weight="normal" font-style="normal" text-decoration="none" font-family="微软雅黑" text-anchor="middle" font-size="13" x="0.0" y="13.325">HTTP</text></g></g><g id="ProcessOnG1122" transform="matrix(1.0,0.0,0.0,1.0,733.6666666666665,490.3333333333334)" opacity="1.0"><path id="ProcessOnPath1123" d="M0.0 0.0L91.0 0.0L91.0 81.0L0.0 81.0Z" stroke="#323232" stroke-width="0.0" stroke-dasharray="none" opacity="1.0" fill="url(#ProcessOnPattern1124)"/></g><g id="ProcessOnG1126" transform="matrix(1.0,0.0,0.0,1.0,665.8888888888887,759.2222222222221)" opacity="1.0"><path id="ProcessOnPath1127" d="M0.0 0.0L91.0 0.0L91.0 81.0L0.0 81.0Z" stroke="#323232" stroke-width="0.0" stroke-dasharray="none" opacity="1.0" fill="url(#ProcessOnPattern1128)"/></g><g id="ProcessOnG1130" transform="matrix(1.0,0.0,0.0,1.0,304.44444444444446,830.8333333333336)" opacity="1.0"><path id="ProcessOnPath1131" d="M0.0 0.0L171.66666666666666 0.0L171.66666666666666 50.000000000000114L0.0 50.000000000000114Z" stroke="#323232" stroke-width="0.0" stroke-dasharray="none" opacity="1.0" fill="none"/><g id="ProcessOnG1132" transform="matrix(1.0,0.0,0.0,1.0,0.0,16.875000000000057)"><text id="ProcessOnText1133" fill="#000000" font-weight="normal" font-style="normal" text-decoration="none" font-family="微软雅黑" text-anchor="middle" font-size="13" x="84.83333333333333" y="13.325">mongo-crawer</text></g></g><g id="ProcessOnG1134" transform="matrix(1.0,0.0,0.0,1.0,620.2777777777778,816.4814814814811)" opacity="1.0"><path id="ProcessOnPath1135" d="M0.0 0.0L171.66666666666666 0.0L171.66666666666666 50.000000000000114L0.0 50.000000000000114Z" stroke="#323232" stroke-width="0.0" stroke-dasharray="none" opacity="1.0" fill="none"/><g id="ProcessOnG1136" transform="matrix(1.0,0.0,0.0,1.0,0.0,16.875000000000057)"><text id="ProcessOnText1137" fill="#000000" font-weight="normal" font-style="normal" text-decoration="none" font-family="微软雅黑" text-anchor="middle" font-size="13" x="84.83333333333333" y="13.325">redis-pubsub</text></g></g><g id="ProcessOnG1138" transform="matrix(1.0,0.0,0.0,1.0,689.6885850694446,549.3171296296297)" opacity="1.0"><path id="ProcessOnPath1139" d="M0.0 0.0L171.66666666666666 0.0L171.66666666666666 50.000000000000114L0.0 50.000000000000114Z" stroke="#323232" stroke-width="0.0" stroke-dasharray="none" opacity="1.0" fill="none"/><g id="ProcessOnG1140" transform="matrix(1.0,0.0,0.0,1.0,0.0,16.875000000000057)"><text id="ProcessOnText1141" fill="#000000" font-weight="normal" font-style="normal" text-decoration="none" font-family="微软雅黑" text-anchor="middle" font-size="13" x="84.83333333333333" y="13.325">redis-text</text></g></g><g id="ProcessOnG1142" transform="matrix(1.0,0.0,0.0,1.0,407.3055555555557,57.75)" opacity="1.0"><path id="ProcessOnPath1143" d="M0.0 0.0L112.0 0.0L112.0 111.0L0.0 111.0Z" stroke="#323232" stroke-width="0.0" stroke-dasharray="none" opacity="1.0" fill="url(#ProcessOnPattern1144)"/></g><g id="ProcessOnG1146"><path id="ProcessOnPath1147" d="M232.7360679774998 178.849609375C292.10000069135 178.849609375 329.39999930865 178.875 388.7639320225002 178.875" stroke="#323232" stroke-width="2.0" stroke-dasharray="none" fill="none" marker-start="url(#ProcessOnMarker1148)" marker-end="url(#ProcessOnMarker1150)"/><g id="ProcessOnG1152" transform="matrix(1.0,0.0,0.0,1.0,310.75,170.7373046875)"><path id="ProcessOnPath1153" d="M0 0H32.0V16.25H0Z" fill="#fff" transform="matrix(1.0,0.0,0.0,1.0,-16.0,0.0)"/><text id="ProcessOnText1154" fill="#000000" font-weight="normal" font-style="normal" text-decoration="none" font-family="微软雅黑" text-anchor="middle" font-size="13" x="0.0" y="13.325">HTTP</text></g></g><g id="ProcessOnG1155"><path id="ProcessOnPath1156" d="M776.0555555555557 599.4027346441666C776.0555555555557 622.7069290479351 709.0925925925922 614.9041820631758 709.0925925925922 638.2083764669443" stroke="#323232" stroke-width="2.0" stroke-dasharray="none" fill="none" marker-start="url(#ProcessOnMarker1157)" marker-end="url(#ProcessOnMarker1159)"/><g id="ProcessOnG1161" transform="matrix(1.0,0.0,0.0,1.0,742.5740740740739,610.6805555555554)"><path id="ProcessOnPath1162" d="M0 0H24.0V16.25H0Z" fill="#fff" transform="matrix(1.0,0.0,0.0,1.0,-12.0,0.0)"/><text id="ProcessOnText1163" fill="#000000" font-weight="normal" font-style="normal" text-decoration="none" font-family="微软雅黑" text-anchor="middle" font-size="13" x="0.0" y="13.325">MQ</text></g></g><g id="ProcessOnG1164" transform="matrix(1.0,0.0,0.0,1.0,882.5,52.5)" opacity="1.0"><path id="ProcessOnPath1165" d="M0.0 810.0Q9.0 810.0 9.0 801.0L9.0 414.0Q9.0 405.0 22.0 405.0Q9.0 405.0 9.0 396.0L9.0 9.0Q9.0 0.0 0.0 0.0" stroke="#323232" stroke-width="1.0" stroke-dasharray="5.0 2.0" opacity="1.0" fill="none"/><path id="ProcessOnPath1166" d="M0.0 0.0L101.25 0.0L101.25 810.0L0.0 810.0Z" stroke="#323232" stroke-width="0.0" stroke-dasharray="0.0 0.0" opacity="1.0" fill="none"/><g id="ProcessOnG1167" transform="matrix(1.0,0.0,0.0,1.0,27.0,396.875)"><text id="ProcessOnText1168" fill="#000000" font-weight="normal" font-style="normal" text-decoration="none" font-family="微软雅黑" text-anchor="start" font-size="13" x="0.0" y="13.325">monitor</text></g></g><g id="ProcessOnG1169" transform="matrix(1.0,0.0,0.0,1.0,900.0,416.25)" opacity="1.0"><path id="ProcessOnPath1170" d="M0.0 0.0L100.0 0.0L100.0 193.75L0.0 193.75Z" stroke="#323232" stroke-width="0.0" stroke-dasharray="none" opacity="1.0" fill="none"/><g id="ProcessOnG1171" transform="matrix(1.0,0.0,0.0,1.0,0.0,64.375)"><text id="ProcessOnText1172" fill="#000000" font-weight="normal" font-style="normal" text-decoration="none" font-family="微软雅黑" text-anchor="middle" font-size="13" x="49.0" y="13.325">prometheus + </text><text id="ProcessOnText1173" fill="#000000" font-weight="normal" font-style="normal" text-decoration="none" font-family="微软雅黑" text-anchor="middle" font-size="13" x="49.0" y="29.575">grafana + </text><text id="ProcessOnText1174" fill="#000000" font-weight="normal" font-style="normal" text-decoration="none" font-family="微软雅黑" text-anchor="middle" font-size="13" x="49.0" y="45.825">cadvisor + </text><text id="ProcessOnText1175" fill="#000000" font-weight="normal" font-style="normal" text-decoration="none" font-family="微软雅黑" text-anchor="middle" font-size="13" x="49.0" y="62.075">alertmanager</text></g></g><g id="ProcessOnG1176" transform="matrix(1.0,0.0,0.0,1.0,142.5,142.849609375)" opacity="1.0"><path id="ProcessOnPath1177" d="M0.0 0.0L75.0 0.0L75.0 72.0L0.0 72.0Z" stroke="#323232" stroke-width="0.0" stroke-dasharray="none" opacity="1.0" fill="url(#ProcessOnPattern1178)"/></g></g></g></svg>